<?xml version="1.0" encoding="utf-8"?>
<svg version="1.1" xmlns:xlink="http://www.w3.org/1999/xlink" width="17px" height="18px" xmlns="http://www.w3.org/2000/svg">
  <defs>
    <pattern id="BGPattern" patternUnits="userSpaceOnUse" alignment="0 0" imageRepeat="None" />
    <mask fill="white" id="Clip3">
      <path d="M 13.735026041666668 10.066406250000002  C 14.022786458333332 9.93359375  14.166666666666668 9.703125  14.166666666666668 9.374999999999998  L 14.166666666666668 3.750000000000001  C 14.166666666666668 3.546874999999999  14.096571180555557 3.371093749999999  13.956380208333332 3.222656250000001  C 13.816189236111112 3.0742187499999982  13.650173611111112 2.999999999999999  13.458333333333332 2.999999999999999  L 8.145833333333334 2.999999999999999  C 7.8359375 2.999999999999999  7.618272569444445 3.152343750000001  7.492838541666666 3.457031249999999  C 7.367404513888889 3.7773437499999982  7.419053819444445 4.050781249999998  7.647786458333334 4.277343750000001  L 9.241536458333332 5.964843750000001  L 3.331380208333333 12.222656249999998  C 3.1911892361111116 12.371093749999996  3.12109375 12.546874999999996  3.12109375 12.749999999999998  C 3.12109375 12.953125  3.1911892361111116 13.12890625  3.331380208333333 13.277343749999998  L 4.460286458333334 14.47265625  C 4.600477430555556 14.62109375  4.766493055555556 14.6953125  4.958333333333334 14.6953125  C 5.150173611111112 14.6953125  5.316189236111112 14.62109375  5.456380208333334 14.47265625  L 11.366536458333332 8.21484375  L 12.960286458333332 9.902343749999998  C 13.093098958333332 10.05078125  13.259114583333332 10.125  13.458333333333332 10.125  C 13.546875 10.125  13.639105902777779 10.10546875  13.735026041666668 10.066406250000002  Z M 16.064778645833332 0.9902343750000007  C 16.68825954861111 1.6503906249999984  17 2.4453124999999973  17 3.375  L 17 14.625  C 17 15.554687499999998  16.68825954861111 16.349609375  16.064778645833332 17.009765625  C 15.441297743055557 17.669921875  14.690538194444446 18  13.8125 18  L 3.1875 18  C 2.309461805555556 18  1.5587022569444446 17.669921875  0.9352213541666667 17.009765625  C 0.31174045138888884 16.349609375  0 15.554687499999998  0 14.625  L 0 3.375  C 0 2.4453124999999973  0.31174045138888884 1.6503906249999984  0.9352213541666667 0.9902343750000007  C 1.5587022569444446 0.3300781249999989  2.309461805555556 0  3.1875 0  L 13.8125 0  C 14.690538194444446 0  15.441297743055557 0.3300781249999989  16.064778645833332 0.9902343750000007  Z " fill-rule="evenodd" />
    </mask>
  </defs>
  <g transform="matrix(1 0 0 1 -300 -453 )">
    <path d="M 13.735026041666668 10.066406250000002  C 14.022786458333332 9.93359375  14.166666666666668 9.703125  14.166666666666668 9.374999999999998  L 14.166666666666668 3.750000000000001  C 14.166666666666668 3.546874999999999  14.096571180555557 3.371093749999999  13.956380208333332 3.222656250000001  C 13.816189236111112 3.0742187499999982  13.650173611111112 2.999999999999999  13.458333333333332 2.999999999999999  L 8.145833333333334 2.999999999999999  C 7.8359375 2.999999999999999  7.618272569444445 3.152343750000001  7.492838541666666 3.457031249999999  C 7.367404513888889 3.7773437499999982  7.419053819444445 4.050781249999998  7.647786458333334 4.277343750000001  L 9.241536458333332 5.964843750000001  L 3.331380208333333 12.222656249999998  C 3.1911892361111116 12.371093749999996  3.12109375 12.546874999999996  3.12109375 12.749999999999998  C 3.12109375 12.953125  3.1911892361111116 13.12890625  3.331380208333333 13.277343749999998  L 4.460286458333334 14.47265625  C 4.600477430555556 14.62109375  4.766493055555556 14.6953125  4.958333333333334 14.6953125  C 5.150173611111112 14.6953125  5.316189236111112 14.62109375  5.456380208333334 14.47265625  L 11.366536458333332 8.21484375  L 12.960286458333332 9.902343749999998  C 13.093098958333332 10.05078125  13.259114583333332 10.125  13.458333333333332 10.125  C 13.546875 10.125  13.639105902777779 10.10546875  13.735026041666668 10.066406250000002  Z M 16.064778645833332 0.9902343750000007  C 16.68825954861111 1.6503906249999984  17 2.4453124999999973  17 3.375  L 17 14.625  C 17 15.554687499999998  16.68825954861111 16.349609375  16.064778645833332 17.009765625  C 15.441297743055557 17.669921875  14.690538194444446 18  13.8125 18  L 3.1875 18  C 2.309461805555556 18  1.5587022569444446 17.669921875  0.9352213541666667 17.009765625  C 0.31174045138888884 16.349609375  0 15.554687499999998  0 14.625  L 0 3.375  C 0 2.4453124999999973  0.31174045138888884 1.6503906249999984  0.9352213541666667 0.9902343750000007  C 1.5587022569444446 0.3300781249999989  2.309461805555556 0  3.1875 0  L 13.8125 0  C 14.690538194444446 0  15.441297743055557 0.3300781249999989  16.064778645833332 0.9902343750000007  Z " fill-rule="nonzero" fill="rgba(255, 255, 255, 1)" stroke="none" transform="matrix(1 0 0 1 300 453 )" class="fill" />
    <path d="M 13.735026041666668 10.066406250000002  C 14.022786458333332 9.93359375  14.166666666666668 9.703125  14.166666666666668 9.374999999999998  L 14.166666666666668 3.750000000000001  C 14.166666666666668 3.546874999999999  14.096571180555557 3.371093749999999  13.956380208333332 3.222656250000001  C 13.816189236111112 3.0742187499999982  13.650173611111112 2.999999999999999  13.458333333333332 2.999999999999999  L 8.145833333333334 2.999999999999999  C 7.8359375 2.999999999999999  7.618272569444445 3.152343750000001  7.492838541666666 3.457031249999999  C 7.367404513888889 3.7773437499999982  7.419053819444445 4.050781249999998  7.647786458333334 4.277343750000001  L 9.241536458333332 5.964843750000001  L 3.331380208333333 12.222656249999998  C 3.1911892361111116 12.371093749999996  3.12109375 12.546874999999996  3.12109375 12.749999999999998  C 3.12109375 12.953125  3.1911892361111116 13.12890625  3.331380208333333 13.277343749999998  L 4.460286458333334 14.47265625  C 4.600477430555556 14.62109375  4.766493055555556 14.6953125  4.958333333333334 14.6953125  C 5.150173611111112 14.6953125  5.316189236111112 14.62109375  5.456380208333334 14.47265625  L 11.366536458333332 8.21484375  L 12.960286458333332 9.902343749999998  C 13.093098958333332 10.05078125  13.259114583333332 10.125  13.458333333333332 10.125  C 13.546875 10.125  13.639105902777779 10.10546875  13.735026041666668 10.066406250000002  Z " stroke-width="0" stroke-dasharray="0" stroke="rgba(255, 255, 255, 0)" fill="none" transform="matrix(1 0 0 1 300 453 )" class="stroke" mask="url(#Clip3)" />
    <path d="M 16.064778645833332 0.9902343750000007  C 16.68825954861111 1.6503906249999984  17 2.4453124999999973  17 3.375  L 17 14.625  C 17 15.554687499999998  16.68825954861111 16.349609375  16.064778645833332 17.009765625  C 15.441297743055557 17.669921875  14.690538194444446 18  13.8125 18  L 3.1875 18  C 2.309461805555556 18  1.5587022569444446 17.669921875  0.9352213541666667 17.009765625  C 0.31174045138888884 16.349609375  0 15.554687499999998  0 14.625  L 0 3.375  C 0 2.4453124999999973  0.31174045138888884 1.6503906249999984  0.9352213541666667 0.9902343750000007  C 1.5587022569444446 0.3300781249999989  2.309461805555556 0  3.1875 0  L 13.8125 0  C 14.690538194444446 0  15.441297743055557 0.3300781249999989  16.064778645833332 0.9902343750000007  Z " stroke-width="0" stroke-dasharray="0" stroke="rgba(255, 255, 255, 0)" fill="none" transform="matrix(1 0 0 1 300 453 )" class="stroke" mask="url(#Clip3)" />
  </g>
</svg>