<?xml version="1.0" encoding="utf-8"?>
<svg version="1.1" xmlns:xlink="http://www.w3.org/1999/xlink" width="20px" height="21px" xmlns="http://www.w3.org/2000/svg">
  <defs>
    <pattern id="BGPattern" patternUnits="userSpaceOnUse" alignment="0 0" imageRepeat="None" />
    <mask fill="white" id="Clip11">
      <path d="M 19.52861952861953 15.696969696969695  C 19.84287317620651 16.026936026936024  20 16.427609427609426  20 16.8989898989899  C 20 17.370370370370374  19.84287317620651 17.771043771043768  19.52861952861953 18.1010101010101  L 17.23905723905724 20.505050505050505  C 16.924803591470262 20.835016835016837  16.54320987654321 21  16.094276094276093 21  C 15.645342312008982 21  15.263748597081932 20.835016835016837  14.94949494949495 20.505050505050505  L 10 15.30808080808081  L 5.050505050505051 20.505050505050505  C 4.73625140291807 20.835016835016837  4.354657687991022 21  3.9057239057239057 21  C 3.4567901234567904 21  3.0751964085297425 20.835016835016837  2.7609427609427613 20.505050505050505  L 0.4713804713804714 18.1010101010101  C 0.1571268237934906 17.771043771043768  0 17.370370370370374  0 16.8989898989899  C 0 16.427609427609426  0.1571268237934906 16.026936026936024  0.4713804713804714 15.696969696969695  L 5.42087542087542 10.5  L 0.4713804713804714 5.303030303030302  C 0.1571268237934906 4.973063973063971  0 4.572390572390573  0 4.101010101010101  C 0 3.6296296296296293  0.1571268237934906 3.2289562289562257  0.4713804713804714 2.8989898989898997  L 2.7609427609427613 0.49494949494949503  C 3.0751964085297425 0.16498316498316423  3.4567901234567904 0  3.9057239057239057 0  C 4.354657687991022 0  4.73625140291807 0.16498316498316423  5.050505050505051 0.49494949494949503  L 10 5.691919191919193  L 14.94949494949495 0.49494949494949503  C 15.263748597081932 0.16498316498316423  15.645342312008982 0  16.094276094276093 0  C 16.54320987654321 0  16.924803591470262 0.16498316498316423  17.23905723905724 0.49494949494949503  L 19.52861952861953 2.8989898989898997  C 19.84287317620651 3.2289562289562257  20 3.6296296296296293  20 4.101010101010101  C 20 4.572390572390573  19.84287317620651 4.973063973063971  19.52861952861953 5.303030303030302  L 14.579124579124578 10.5  L 19.52861952861953 15.696969696969695  Z " fill-rule="evenodd" />
    </mask>
  </defs>
  <g transform="matrix(1 0 0 1 -375 0 )">
    <path d="M 19.52861952861953 15.696969696969695  C 19.84287317620651 16.026936026936024  20 16.427609427609426  20 16.8989898989899  C 20 17.370370370370374  19.84287317620651 17.771043771043768  19.52861952861953 18.1010101010101  L 17.23905723905724 20.505050505050505  C 16.924803591470262 20.835016835016837  16.54320987654321 21  16.094276094276093 21  C 15.645342312008982 21  15.263748597081932 20.835016835016837  14.94949494949495 20.505050505050505  L 10 15.30808080808081  L 5.050505050505051 20.505050505050505  C 4.73625140291807 20.835016835016837  4.354657687991022 21  3.9057239057239057 21  C 3.4567901234567904 21  3.0751964085297425 20.835016835016837  2.7609427609427613 20.505050505050505  L 0.4713804713804714 18.1010101010101  C 0.1571268237934906 17.771043771043768  0 17.370370370370374  0 16.8989898989899  C 0 16.427609427609426  0.1571268237934906 16.026936026936024  0.4713804713804714 15.696969696969695  L 5.42087542087542 10.5  L 0.4713804713804714 5.303030303030302  C 0.1571268237934906 4.973063973063971  0 4.572390572390573  0 4.101010101010101  C 0 3.6296296296296293  0.1571268237934906 3.2289562289562257  0.4713804713804714 2.8989898989898997  L 2.7609427609427613 0.49494949494949503  C 3.0751964085297425 0.16498316498316423  3.4567901234567904 0  3.9057239057239057 0  C 4.354657687991022 0  4.73625140291807 0.16498316498316423  5.050505050505051 0.49494949494949503  L 10 5.691919191919193  L 14.94949494949495 0.49494949494949503  C 15.263748597081932 0.16498316498316423  15.645342312008982 0  16.094276094276093 0  C 16.54320987654321 0  16.924803591470262 0.16498316498316423  17.23905723905724 0.49494949494949503  L 19.52861952861953 2.8989898989898997  C 19.84287317620651 3.2289562289562257  20 3.6296296296296293  20 4.101010101010101  C 20 4.572390572390573  19.84287317620651 4.973063973063971  19.52861952861953 5.303030303030302  L 14.579124579124578 10.5  L 19.52861952861953 15.696969696969695  Z " fill-rule="nonzero" fill="rgba(0, 0, 0, 1)" stroke="none" transform="matrix(1 0 0 1 375 0 )" class="fill" />
    <path d="M 19.52861952861953 15.696969696969695  C 19.84287317620651 16.026936026936024  20 16.427609427609426  20 16.8989898989899  C 20 17.370370370370374  19.84287317620651 17.771043771043768  19.52861952861953 18.1010101010101  L 17.23905723905724 20.505050505050505  C 16.924803591470262 20.835016835016837  16.54320987654321 21  16.094276094276093 21  C 15.645342312008982 21  15.263748597081932 20.835016835016837  14.94949494949495 20.505050505050505  L 10 15.30808080808081  L 5.050505050505051 20.505050505050505  C 4.73625140291807 20.835016835016837  4.354657687991022 21  3.9057239057239057 21  C 3.4567901234567904 21  3.0751964085297425 20.835016835016837  2.7609427609427613 20.505050505050505  L 0.4713804713804714 18.1010101010101  C 0.1571268237934906 17.771043771043768  0 17.370370370370374  0 16.8989898989899  C 0 16.427609427609426  0.1571268237934906 16.026936026936024  0.4713804713804714 15.696969696969695  L 5.42087542087542 10.5  L 0.4713804713804714 5.303030303030302  C 0.1571268237934906 4.973063973063971  0 4.572390572390573  0 4.101010101010101  C 0 3.6296296296296293  0.1571268237934906 3.2289562289562257  0.4713804713804714 2.8989898989898997  L 2.7609427609427613 0.49494949494949503  C 3.0751964085297425 0.16498316498316423  3.4567901234567904 0  3.9057239057239057 0  C 4.354657687991022 0  4.73625140291807 0.16498316498316423  5.050505050505051 0.49494949494949503  L 10 5.691919191919193  L 14.94949494949495 0.49494949494949503  C 15.263748597081932 0.16498316498316423  15.645342312008982 0  16.094276094276093 0  C 16.54320987654321 0  16.924803591470262 0.16498316498316423  17.23905723905724 0.49494949494949503  L 19.52861952861953 2.8989898989898997  C 19.84287317620651 3.2289562289562257  20 3.6296296296296293  20 4.101010101010101  C 20 4.572390572390573  19.84287317620651 4.973063973063971  19.52861952861953 5.303030303030302  L 14.579124579124578 10.5  L 19.52861952861953 15.696969696969695  Z " stroke-width="0" stroke-dasharray="0" stroke="rgba(255, 255, 255, 0)" fill="none" transform="matrix(1 0 0 1 375 0 )" class="stroke" mask="url(#Clip11)" />
  </g>
</svg>